<svg version="1.2" xmlns="http://www.w3.org/2000/svg" viewBox="0 0 17 16" width="17" height="16">
	<title>print-orange-svg</title>
	<style>
		.s0 { fill: none } 
		.s1 { fill: #00502d } 
	</style>
	<path id="Layer" class="s0" d="m4.3 0.9h7.8v3.5h-7.8z" />
	<path id="Layer" class="s0" d="m5.2 10.4h6v4.3h-6z" />
	<path id="Layer" class="s0" d="m14.9 5.3q0.2 0.1 0.3 0.2q0.2 0.2 0.3 0.5q0 0.2 0 0.4v4.5q0 0.2-0.1 0.4q-0.1 0.2-0.2 0.4q-0.2 0.2-0.4 0.3q-0.3 0.1-0.5 0.1h-2.2v-2.2q0-0.1-0.1-0.2q0 0-0.1-0.1q0 0-0.1-0.1q-0.1 0-0.2 0h-6.9q-0.1 0-0.1 0q-0.1 0.1-0.2 0.1q0 0.1-0.1 0.1q0 0.1 0 0.2v2.2h-2.2q-0.3 0-0.5-0.1q-0.2-0.1-0.4-0.3q-0.1-0.2-0.2-0.4q-0.1-0.2-0.1-0.4v-4.5q0-0.3 0.1-0.5q0.1-0.2 0.2-0.4q0.2-0.1 0.4-0.2q0.2-0.1 0.5-0.1h12.3q0.2 0 0.5 0.1z" />
	<path id="Layer" fill-rule="evenodd" class="s1" d="m15.2 4.5q0.4 0.1 0.6 0.4q0.3 0.3 0.5 0.7q0.1 0.4 0.1 0.8v4.5q0 0.4-0.2 0.8q-0.1 0.4-0.4 0.7q-0.3 0.3-0.7 0.4q-0.4 0.2-0.8 0.2h-2.2v2.1q0 0.1-0.1 0.2q0 0.1-0.1 0.1q0 0.1-0.1 0.1q-0.1 0-0.2 0h-6.9q-0.1 0-0.1 0q-0.1 0-0.2-0.1q0 0-0.1-0.1q0-0.1 0-0.2v-2.1h-2.2q-0.4 0-0.8-0.2q-0.4-0.1-0.7-0.4q-0.3-0.3-0.4-0.7q-0.2-0.4-0.2-0.8v-4.5q0-0.4 0.2-0.8q0.1-0.4 0.4-0.7q0.3-0.3 0.7-0.4q0.4-0.2 0.8-0.2h1.4v-3.9q0-0.1 0-0.1q0-0.1 0.1-0.2q0.1 0 0.1-0.1q0.1 0 0.2 0h8.7q0.1 0 0.2 0q0 0.1 0.1 0.1q0.1 0.1 0.1 0.2q0 0 0 0.1v3.9h1.4q0.4 0 0.8 0.2zm-10.9-0.1h7.8v-3.5h-7.8zm6.9 10.3v-4.3h-6v4.3zm4.3-3.8v-4.5q0-0.2-0.1-0.4q-0.1-0.2-0.3-0.4q-0.1-0.2-0.3-0.3q-0.3-0.1-0.5-0.1h-12.3q-0.2 0-0.4 0.1q-0.3 0.1-0.4 0.3q-0.2 0.2-0.3 0.4q-0.1 0.2-0.1 0.4v4.5q0 0.3 0.1 0.5q0.1 0.2 0.3 0.4q0.1 0.1 0.4 0.2q0.2 0.1 0.4 0.1h2.3v-2.1q0-0.1 0-0.2q0.1-0.1 0.1-0.1q0.1-0.1 0.2-0.1q0 0 0.1 0h7q0.1 0 0.1 0q0.1 0 0.2 0.1q0 0 0.1 0.1q0 0.1 0 0.2v2.1h2.2q0.3 0 0.5-0.1q0.2-0.1 0.4-0.2q0.2-0.2 0.2-0.4q0.1-0.2 0.1-0.5z" />
</svg>