<svg version="1.2" xmlns="http://www.w3.org/2000/svg" viewBox="0 0 19 15" width="19" height="15">
	<title>audio-orange-svg</title>
	<style>
		.s0 { fill: none } 
		.s1 { fill: #00502d } 
	</style>
	<g id="Layer">
		<path id="Layer" class="s0" d="m10.9 1.3v12.4l-5.3-3v-0.1q0-0.1 0-0.1q0-0.1 0-0.1q0 0 0-0.1q0 0 0-0.1v-5.6c0-0.1 0-0.2 0-0.3z" />
		<path id="Layer" class="s0" d="m4.6 10.4q0 0.1-0.1 0.1q0 0.1 0 0.1q-0.1 0.1-0.2 0.1q0 0-0.1 0h-2.8q-0.1 0-0.2 0q-0.1-0.1-0.1-0.1q-0.1-0.1-0.1-0.2q-0.1-0.1-0.1-0.2v-5.6q0-0.1 0.1-0.1q0-0.1 0.1-0.2q0-0.1 0.1-0.1q0.1 0 0.2 0h2.8q0.1 0 0.1 0q0.1 0 0.1 0.1q0.1 0 0.1 0q0.1 0.1 0.1 0.2z" />
		<path id="Layer" fill-rule="evenodd" class="s1" d="m11.7 0.2q0.1 0 0.1 0.1q0 0 0 0.1q0 0 0.1 0.1v14q0 0.1-0.1 0.2q0 0 0 0.1q0 0-0.1 0.1q0 0-0.1 0q0 0.1-0.1 0.1q-0.1 0-0.1 0q-0.1 0-0.1 0q-0.1 0-0.1-0.1l-6.2-3.5q-0.1 0.1-0.2 0.1q-0.1 0-0.2 0.1q-0.1 0-0.2 0q-0.1 0-0.2 0h-2.8q-0.3 0-0.5-0.1q-0.3-0.1-0.5-0.3q-0.2-0.2-0.3-0.4q-0.1-0.3-0.1-0.6v-5.6q0-0.2 0.1-0.5q0.1-0.3 0.3-0.5q0.2-0.2 0.5-0.3q0.2-0.1 0.5-0.1h2.8q0.1 0 0.2 0.1q0.1 0 0.2 0q0.2 0 0.3 0.1q0.1 0.1 0.1 0.1l6.2-3.4q0-0.1 0.1-0.1q0 0 0.1 0q0 0 0.1 0q0.1 0 0.1 0.1q0.1 0 0.1 0.1zm-7.4 10.5q0.1 0 0.2-0.1q0 0 0.1-0.1q0 0 0-0.1v-5.9q0-0.1-0.1-0.2q0 0 0 0q-0.1-0.1-0.2-0.1q0 0-0.1 0h-2.8q-0.1 0-0.2 0q-0.1 0-0.1 0.1q-0.1 0.1-0.1 0.2q-0.1 0-0.1 0.1v5.6q0 0.1 0.1 0.2q0 0.1 0.1 0.2q0 0 0.1 0.1q0.1 0 0.2 0h2.8q0.1 0 0.1 0zm6.6-9.4l-5.3 3q0 0 0 0q0 0.1 0 0.1q0 0.1 0 0.1q0 0.1 0 0.1v5.6c0 0.1 0 0.2 0 0.3v0.1l5.3 3.1zm-5.3 3q0 0 0 0z" />
		<path id="Layer" class="s1" d="m15.5 5q0.3 0.4 0.5 0.9q0.1 0.4 0.2 0.9q0.1 0.5 0.1 1q0 0.4-0.1 0.8q-0.2 0.4-0.3 0.8q-0.2 0.3-0.5 0.6q-0.2 0.4-0.6 0.6q0 0.1-0.1 0.1q-0.1 0.1-0.2 0.1q-0.1 0-0.2-0.1q-0.1 0-0.1-0.1q-0.1-0.1-0.1-0.1q0-0.1 0-0.2q0-0.1 0-0.2q0.1-0.1 0.1-0.1q0.3-0.2 0.5-0.5q0.2-0.2 0.3-0.5q0.2-0.3 0.3-0.6q0.1-0.3 0.1-0.6q0-0.4-0.1-0.8q-0.1-0.4-0.2-0.8q-0.2-0.4-0.4-0.7q-0.2-0.4-0.5-0.7q-0.1-0.1-0.1-0.3q0-0.2 0.2-0.3q0.1-0.1 0.3-0.1q0.2 0 0.3 0.1q0.4 0.4 0.6 0.8z" />
		<path id="Layer" class="s1" d="m16.6 12.4q-0.1 0.1-0.1 0.1q0 0-0.1 0q0 0.1-0.1 0.1q0 0-0.1 0q0 0-0.1 0q0 0 0-0.1q-0.1 0-0.1 0q-0.1 0-0.1-0.1q-0.1 0-0.1-0.1q0-0.1 0-0.2q0-0.1 0-0.2q0-0.1 0.1-0.1c0.1-0.2 3.7-3.7 0-8.8q-0.1-0.1-0.1-0.2q0-0.1 0-0.2q0-0.1 0.1-0.1q0-0.1 0.1-0.1q0.1-0.1 0.2-0.1q0.1 0 0.1 0q0.1 0 0.2 0q0.1 0.1 0.2 0.1c4.2 5.8-0.1 10-0.1 10z" />
	</g>
</svg>