<svg xmlns="http://www.w3.org/2000/svg" width="21.623" height="23.371" viewBox="0 0 21.623 23.371">
  <g id="Download_hover_effect" data-name="Download hover effect" transform="translate(1 1)">
    <g id="Group_1071" data-name="Group 1071" transform="translate(17.908) rotate(90)">
      <path id="Path_2987" data-name="Path 2987" d="M16,8.786a1,1,0,0,1-.7-.283L8,1.4.7,8.5A1,1,0,0,1-.717,8.483,1,1,0,0,1-.7,7.069l8-7.786a1,1,0,0,1,1.395,0l8,7.786A1,1,0,0,1,16,8.786Z" transform="translate(19.781) rotate(90)" fill="#00502d"/>
      <path id="Path_2988" data-name="Path 2988" d="M0,19a1,1,0,0,1-1-1V0A1,1,0,0,1,0-1,1,1,0,0,1,1,0V18A1,1,0,0,1,0,19Z" transform="translate(18 7.978) rotate(90)" fill="#00502d"/>
    </g>
    <path id="Path_2990" data-name="Path 2990" d="M-20026.682,6218.48h-19.623a1,1,0,0,1-1-1,1,1,0,0,1,1-1h19.623a1,1,0,0,1,1,1A1,1,0,0,1-20026.682,6218.48Z" transform="translate(20046.305 -6196.109)" fill="#00502d"/>
  </g>
</svg>
