<svg id="Falk" xmlns="http://www.w3.org/2000/svg" width="50.268" height="89.832" viewBox="0 0 50.268 89.832">
  <path id="Path_3956" data-name="Path 3956" d="M34.881,60.737c6.629,4.583,11.837,8.231,11.928,8.295l.546.008,1.1-.718.162-.624c-4.662-9.314-20.559-38.335-27.078-46.124a3.27,3.27,0,0,0,.568.052h.036a3.192,3.192,0,0,0,3.175-3.21h0A3.209,3.209,0,0,0,19.881,16.1c-.152-4.988-1.151-8.893-6.582-9.178A3.494,3.494,0,0,1,16.7,4.492l.019-.973a4.464,4.464,0,0,0-3.438,1.506c.5-3.044,2.092-3.787,3.655-4.067L16.769,0a4.889,4.889,0,0,0-4.14,3.623A4.882,4.882,0,0,0,8.49,0L8.318.958c1.558.279,3.146,1.02,3.65,4.043A4.458,4.458,0,0,0,8.55,3.514l.018.973a3.494,3.494,0,0,1,3.405,2.453c-2.9.267-5.351,2.206-5.588,4.467v-.18c-.973,0-5.824.344-6.385,7.132l.929.237c.206-.467.692-1.563,4.422-1.089l.324.374-.1,2.918C.451,28.906-2.35,43.929,7.434,52.212c1.192.964,2.619,1.929,4.24,2.986.649,2.885,3.5,12.6,5.226,16.32l.386.277.678.079L16.283,77.03c-7.019.008-10.188.285-10.909,2.621a7.352,7.352,0,0,0,3.9,8.831l.7.324V82.39h2.281a6.97,6.97,0,0,0,4.286,5.91l.673.279V82.39h5v6.1l.717-.387c3.3-1.783,4.564-4.247,4.106-8.043-.315-1.741-.848-2.918-5-3.02L23.349,72.7l-.931-.284L20.716,78h.658c4.294,0,4.462.935,4.693,2.2.375,3.111-.467,5.083-2.888,6.622V81.418h-6.94v5.656A6,6,0,0,1,13.205,81.9v-.486H9v5.8a6.381,6.381,0,0,1-2.7-7.285C6.82,78.266,9.773,78,16.638,78h.353l1.96-6.012,6.343.739.542-.486V66.31c6.917,7.1,21.689,23.258,21.846,23.43l.6.092,1.8-1.047.18-.658ZM22.117,16.179h0a2.237,2.237,0,1,1,0,4.474h0a2.237,2.237,0,1,1,0-4.474Zm-9.46-8.3c5.2,0,6.231,3.08,6.285,9.54h-.06v.071l-8.5-.011c-2.81-2.312-3.042-3.952-3.042-5.7C7.336,9.736,9.873,7.88,12.657,7.88Zm12.2,63.815-7.188-.833a128.185,128.185,0,0,1-4.808-14.886,70.123,70.123,0,0,1,11.923,9.267l.075.076Zm23.273,17.1c-2.148-2.349-16.753-18.282-22.657-24.237a72.6,72.6,0,0,0-12.442-9.63c-1.952-1.272-3.632-2.376-4.981-3.464-10.267-8.69-5.5-24.14-1.583-30.259l.076-.246.112-3.242-.123-.339-.582-.648-.3-.162a7.451,7.451,0,0,0-4.464.363c1-4.448,4.4-4.727,5.176-4.73.049,1.822.5,3.7,3.523,6.144l.306.107,8.7.013a4.08,4.08,0,0,0,1.077,2.812c5.362,5.485,21.784,34.963,27.58,46.469l-.457.3c-2.134-1.493-16.421-11.472-27.252-18.766C10.8,43.188,8.9,41.293,9.414,35.046l-.973-.079c-.546,6.677,1.714,8.966,10.864,15.119,4.365,2.94,9.291,6.322,13.757,9.4L49.184,88.182Z" transform="translate(0)" fill="#E5EDEA"/>
  <path id="Path_3957" data-name="Path 3957" d="M99.137,146.1l-.971-.075-.217,2.88-2.815-.54-.183.955,3.885.748Z" transform="translate(-79.554 -122.359)" fill="#E5EDEA"/>
  <path id="Path_3958" data-name="Path 3958" d="M123.884,192.262l.3-3.968-.97-.075L123,191.1l-2.813-.542-.183.955Z" transform="translate(-100.542 -157.71)" fill="#E5EDEA"/>
  <path id="Path_3959" data-name="Path 3959" d="M151,231.4l-.97-.075-.219,2.875-2.815-.535-.182.955,3.884.739Z" transform="translate(-123.005 -193.832)" fill="#E5EDEA"/>
  <path id="Path_3960" data-name="Path 3960" d="M65.922,184.786l-.97-.076-.224,2.881-2.815-.542L61.73,188l3.884.746Z" transform="translate(-51.721 -154.769)" fill="#E5EDEA"/>
  <path id="Path_3961" data-name="Path 3961" d="M92.2,231.525l-.971-.075-.23,3-2.927-.559-.182.955,4,.765Z" transform="translate(-73.639 -193.933)" fill="#E5EDEA"/>
  <path id="Path_3962" data-name="Path 3962" d="M132.428,273.842l-2.815-.537-.183.955,3.884.739.3-3.773-.971-.076Z" transform="translate(-108.443 -227.197)" fill="#E5EDEA"/>
  <path id="Path_3963" data-name="Path 3963" d="M178.658,280.625l-.971-.075-.219,2.88-2.651-.516-.186.955,3.725.723Z" transform="translate(-146.314 -235.074)" fill="#E5EDEA"/>
  <path id="Path_3964" data-name="Path 3964" d="M208.717,323.281l-.97-.071-.195,2.663-2.528-.485-.185.955,3.6.691Z" transform="translate(-171.626 -270.819)" fill="#E5EDEA"/>
</svg>
