<svg id="Hjælp_dig_selv" data-name="Hjælp dig selv" xmlns="http://www.w3.org/2000/svg" width="22" height="24" viewBox="0 0 22 24">
  <rect id="Rectangle_1737" data-name="Rectangle 1737" width="4.532" height="0.981" transform="translate(8.877 20.156)" fill="#EF8A17"/>
  <rect id="Rectangle_1738" data-name="Rectangle 1738" width="4.532" height="0.981" transform="translate(8.877 21.518)" fill="#EF8A17"/>
  <path id="Path_3352" data-name="Path 3352" d="M13.119,7.34a5.914,5.914,0,0,0-5.759,6.04v.154a7.748,7.748,0,0,0,1.852,4.729,7.5,7.5,0,0,1,1.818,4.48h4.226a7.358,7.358,0,0,1,1.818-4.48,7.4,7.4,0,0,0,1.818-4.729v-.154A5.906,5.906,0,0,0,13.119,7.34Z" transform="translate(-1.972 -2.527)" fill="#EF8A17"/>
  <path id="Path_3353" data-name="Path 3353" d="M15.212,33.733a1.691,1.691,0,0,0,1.75-1.113H13.47a1.676,1.676,0,0,0,1.742,1.113Z" transform="translate(-4.073 -9.741)" fill="#EF8A17"/>
  <path id="Path_3354" data-name="Path 3354" d="M15.582,3.66a.732.732,0,0,0,.732-.732V.732a.732.732,0,1,0-1.464,0v2.2A.732.732,0,0,0,15.582,3.66Z" transform="translate(-4.442)" fill="#EF8A17"/>
  <path id="Path_3355" data-name="Path 3355" d="M28,6.146a.732.732,0,0,0-.732-1.266l-1.9,1.1A.731.731,0,1,0,26.1,7.244Z" transform="translate(-7.61 -1.285)" fill="#EF8A17"/>
  <path id="Path_3356" data-name="Path 3356" d="M29.228,15.35h-2.2a.732.732,0,0,0,0,1.464h2.2a.732.732,0,1,0,0-1.464Z" transform="translate(-7.96 -4.59)" fill="#EF8A17"/>
  <path id="Path_3357" data-name="Path 3357" d="M4.694,5.966l-1.9-1.1a.732.732,0,1,0-.732,1.266l1.9,1.1a.731.731,0,1,0,.732-1.266Z" transform="translate(-0.448 -1.274)" fill="#EF8A17"/>
  <path id="Path_3358" data-name="Path 3358" d="M2.928,15.35H.732a.732.732,0,1,0,0,1.464h2.2a.732.732,0,1,0,0-1.464Z" transform="translate(0 -4.59)" fill="#EF8A17"/>
</svg>
