<svg xmlns="http://www.w3.org/2000/svg" width="37" height="20" viewBox="0 0 37 20">
  <g id="Pil" transform="translate(-312.062 -970.407)">
    <path id="Path_2987" data-name="Path 2987" d="M18,10.518a1,1,0,0,1-.727-.313L9,1.456.727,10.205a1,1,0,0,1-1.414.04,1,1,0,0,1-.04-1.414l9-9.518A1,1,0,0,1,9-1a1,1,0,0,1,.727.313l9,9.518A1,1,0,0,1,18,10.518Z" transform="translate(348.063 971.407) rotate(90)" fill="#00502d"/>
    <path id="Path_2988" data-name="Path 2988" d="M0,36a1,1,0,0,1-1-1V0A1,1,0,0,1,0-1,1,1,0,0,1,1,0V35A1,1,0,0,1,0,36Z" transform="translate(348.06 980.333) rotate(90)" fill="#00502d"/>
  </g>
</svg>
