<svg xmlns="http://www.w3.org/2000/svg" width="19" height="22" viewBox="0 0 19 22">
  <path id="Private_tilbud" data-name="Private tilbud" d="M18.9,4.459,17,2.259a.618.618,0,0,0-.465-.2H10.889V.537A.532.532,0,0,0,10.361,0H8.624A.532.532,0,0,0,8.1.537V2.06H3.573a.79.79,0,0,0-.86.7V6.691a.8.8,0,0,0,.86.7H8.1v2.683H2.459a.612.612,0,0,0-.465.193L.1,12.5a.391.391,0,0,0,0,.537l1.89,2.2a.618.618,0,0,0,.465.2H8.1v6.031A.532.532,0,0,0,8.624,22h1.737a.532.532,0,0,0,.528-.537V15.432h4.539a.8.8,0,0,0,.86-.7V10.8a.79.79,0,0,0-.86-.7H10.889V7.389h5.648A.587.587,0,0,0,17,7.19L18.9,4.99a.4.4,0,0,0,0-.531Z" transform="translate(0.002)" fill="#B6244F"/>
</svg>
