<svg xmlns="http://www.w3.org/2000/svg" width="15" height="15" viewBox="0 0 15 15">
  <g id="Søg" transform="translate(-0.257)">
    <path id="Path_3026" data-name="Path 3026" d="M6.66,1.7h0A4.92,4.92,0,0,0,1.7,6.57a4.93,4.93,0,0,0,4.93,4.86H6.7a4.9,4.9,0,0,0,4.86-4.86A4.91,4.91,0,0,0,6.66,1.7Z" fill="none"/>
    <path id="Path_3027" data-name="Path 3027" d="M15.023,13.648,11.237,9.894a6.126,6.126,0,0,0,.616-6.468A6.223,6.223,0,0,0,6.288,0h0A6.175,6.175,0,0,0,6.2,12.344H6.26a6.212,6.212,0,0,0,3.861-1.333l3.785,3.755a.779.779,0,0,0,.558.235h0a.788.788,0,0,0,.558-1.352ZM10.953,6.139a4.618,4.618,0,0,1-4.6,4.59H6.288A4.647,4.647,0,0,1,1.623,6.167,4.638,4.638,0,0,1,6.269,1.6h0a4.629,4.629,0,0,1,4.684,4.571Z" fill="#101010"/>
  </g>
</svg>
