<svg width="50" height="50" viewBox="0 0 62 77" fill="none" xmlns="http://www.w3.org/2000/svg"><path d="M56.653 21.688l-8.706 43.409c-.303 1.57-1.024 2.966-2.046 3.963-1.023.996-2.286 1.533-3.586 1.523H8.37c-3.9 0-6.69-4.748-5.528-9.4l10.875-43.377c.364-1.47 1.096-2.76 2.09-3.677.995-.918 2.2-1.416 3.439-1.424H51.02c2.454 0 4.495 1.86 5.347 4.428.491 1.379.594 2.951.285 4.555z" stroke="#000" stroke-width="1.5" stroke-miterlimit="10"/><path d="M41.333 70.583h12.349c3.332 0 5.941-3.497 5.709-7.636L56.833 19.25m-31.826 1.22l2.686-13.86M42.315 20.5l2.428-13.924M19.892 38.5h20.666m-23.25 12.833h20.667" stroke="#000" stroke-width="1.5" stroke-miterlimit="10" stroke-linecap="round" stroke-linejoin="round"/></svg>