<svg width="50" height="50" viewBox="0 0 80 80" fill="none" xmlns="http://www.w3.org/2000/svg"><path d="M53.833 42.767L48.067 44.7a5.292 5.292 0 00-3.367 3.367l-1.933 5.766c-1.634 4.967-8.634 4.867-10.167-.1L26.1 32.8c-1.267-4.167 2.567-8 6.667-6.733l20.966 6.5c4.967 1.566 5.034 8.566.1 10.2z" stroke="#000" stroke-width="1.5" stroke-linecap="round" stroke-linejoin="round"/><path d="M40 73.333c18.41 0 33.333-14.923 33.333-33.333C73.333 21.59 58.41 6.667 40 6.667 21.59 6.667 6.667 21.59 6.667 40 6.667 58.41 21.59 73.333 40 73.333z" stroke="#000" stroke-width="1.5" stroke-linecap="round" stroke-linejoin="round"/></svg>