<svg width="50" height="50" viewBox="0 0 80 80" fill="none" xmlns="http://www.w3.org/2000/svg">
<path d="M53.8333 42.7667L48.0667 44.7C46.4667 45.2333 45.2333 46.4667 44.7 48.0667L42.7667 53.8333C41.1333 58.8 34.1333 58.7 32.6 53.7333L26.1 32.8C24.8333 28.6333 28.6667 24.8 32.7667 26.0667L53.7333 32.5667C58.7 34.1333 58.7667 41.1333 53.8333 42.7667Z" stroke="black" stroke-width="1.5" stroke-linecap="round" stroke-linejoin="round"/>
<path d="M40 73.3333C58.41 73.3333 73.3333 58.41 73.3333 40C73.3333 21.59 58.41 6.66663 40 6.66663C21.59 6.66663 6.66666 21.59 6.66666 40C6.66666 58.41 21.59 73.3333 40 73.3333Z" stroke="black" stroke-width="1.5" stroke-linecap="round" stroke-linejoin="round"/>
</svg>
