<svg width="50" height="50" viewBox="0 0 80 80" fill="none" xmlns="http://www.w3.org/2000/svg"><path d="M54.7 13.333c6.467 0 11.667 5.234 11.667 11.667 0 6.3-5 11.433-11.234 11.667a3.771 3.771 0 00-.866 0m6.866 30c2.4-.5 4.667-1.467 6.534-2.9 5.2-3.9 5.2-10.334 0-14.234-1.834-1.4-4.067-2.333-6.434-2.866m-30.7-10.434a6.047 6.047 0 00-1.1 0A14.733 14.733 0 0115.2 21.467c0-8.167 6.6-14.8 14.8-14.8a14.786 14.786 0 11.533 29.566zm-16.666 12.3c-8.067 5.4-8.067 14.2 0 19.567 9.166 6.133 24.2 6.133 33.366 0 8.067-5.4 8.067-14.2 0-19.567-9.133-6.1-24.166-6.1-33.366 0z" stroke="#000" stroke-width="1.5" stroke-linecap="round" stroke-linejoin="round"/></svg>