<svg id="Play" xmlns="http://www.w3.org/2000/svg" width="70" height="71" viewBox="0 0 70 71">
  <path id="Path_3296" data-name="Path 3296" d="M35,3C17.35,3,3,17.58,3,35.5S17.35,68,35,68,67,53.42,67,35.5,52.64,3,35,3ZM51.8,37a1.07,1.07,0,0,1-.39.4L24.48,52.18A1,1,0,0,1,23,51.31V21.69a1,1,0,0,1,1-1,.91.91,0,0,1,.48.13l26.93,14.8A1,1,0,0,1,51.8,37Z" fill="none"/>
  <path id="Path_3297" data-name="Path 3297" d="M35,0C15.7,0,0,15.93,0,35.5S15.7,71,35,71,70,55.07,70,35.5,54.3,0,35,0Zm0,68C17.35,68,3,53.42,3,35.5S17.35,3,35,3,67,17.58,67,35.5,52.64,68,35,68Z" fill="#648f14"/>
  <path id="Path_3298" data-name="Path 3298" d="M51.41,35.62,24.48,20.82a.91.91,0,0,0-.48-.13,1,1,0,0,0-1,1V51.31a1,1,0,0,0,1.48.87l26.93-14.8a1.07,1.07,0,0,0,.39-.4A1,1,0,0,0,51.41,35.62Z" fill="#648f14"/>
</svg>
