<svg xmlns="http://www.w3.org/2000/svg" width="24" height="32" viewBox="0 0 24 32">
  <g id="Teknologier" transform="translate(-2.998 -4.999)">
    <path id="Path_3339" data-name="Path 3339" d="M10.493,9.089,9.99.861A.935.935,0,0,0,9.014,0H8.941a1.02,1.02,0,0,0-.7.262.9.9,0,0,0-.3.652V8.251a.734.734,0,0,1-.217.574.839.839,0,0,1-.6.242H7.071A.789.789,0,0,1,6.259,8.3V.914a.985.985,0,0,0-1-.86.985.985,0,0,0-1,.86V8.251a.734.734,0,0,1-.217.574.839.839,0,0,1-.6.242H3.373A.789.789,0,0,1,2.56,8.3V.914h0A.9.9,0,0,0,2.25.253,1.031,1.031,0,0,0,1.528,0H1.446A.918.918,0,0,0,.479.861L0,9.142a4.917,4.917,0,0,0,3.959,4.846l-.146,3.489H1.861a.789.789,0,0,0-.813.762V28.327a.789.789,0,0,0,.813.762H3.332l-.081,1.059h0A1.916,1.916,0,0,0,5.226,32,1.916,1.916,0,0,0,7.2,30.148l-.041-1.059H8.6a.789.789,0,0,0,.813-.762V18.216a.789.789,0,0,0-.813-.762H6.714l-.146-3.489A4.9,4.9,0,0,0,10.493,9.089Z" transform="translate(3 5)" fill="#255c99"/>
    <path id="Path_3340" data-name="Path 3340" d="M26.721,17.417H24.688l-.171-3.627c2.309-.762,4.064-3.5,4.064-6.8C28.582,3.131,26.233,0,23.331,0S18.08,3.131,18.08,6.986c0,3.3,1.723,6.1,4.064,6.8l-.13,3.627H19.982a.789.789,0,0,0-.813.762V29.119a.789.789,0,0,0,.813.762h1.553v.274A1.832,1.832,0,0,0,23.331,32h.041a1.837,1.837,0,0,0,1.8-1.882v-.236h1.561a.789.789,0,0,0,.813-.762V18.179a.739.739,0,0,0-.241-.541A.842.842,0,0,0,26.721,17.417Z" transform="translate(-1.584 5)" fill="#255c99"/>
  </g>
</svg>
