<svg xmlns="http://www.w3.org/2000/svg" width="29" height="19" viewBox="0 0 29 19">
  <g id="Tilbagepil" transform="translate(70.723 18) rotate(180)">
    <path id="Path_2987" data-name="Path 2987" d="M17,10.255a1,1,0,0,1-.737-.324L8.5,1.478.737,9.931a1,1,0,0,1-1.413.06,1,1,0,0,1-.06-1.413l8.5-9.255A1,1,0,0,1,8.5-1a1,1,0,0,1,.737.324l8.5,9.255A1,1,0,0,1,17,10.255Z" transform="translate(69.723) rotate(90)" fill="#00502d"/>
    <path id="Path_2988" data-name="Path 2988" d="M0,28a1,1,0,0,1-1-1V0A1,1,0,0,1,0-1,1,1,0,0,1,1,0V27A1,1,0,0,1,0,28Z" transform="translate(69.721 8.43) rotate(90)" fill="#00502d"/>
  </g>
</svg>
